<svg width="28" height="28" viewBox="0 0 28 28" fill="none" xmlns="http://www.w3.org/2000/svg">
<path d="M13.9992 0C10.1939 0 9.7196 0.018375 8.23035 0.081375C6.73498 0.154875 5.72348 0.38675 4.83098 0.73325C3.89688 1.08589 3.05093 1.63801 2.3521 2.35113C1.637 3.04832 1.08457 3.89474 0.734227 4.83C0.387727 5.7225 0.155852 6.734 0.0823516 8.22937C0.0149766 9.7195 0.000976562 10.1929 0.000976562 13.9983C0.000976562 17.8036 0.0193516 18.2779 0.0823516 19.7671C0.155852 21.2581 0.387727 22.274 0.734227 23.1665C1.08687 24.1006 1.63899 24.9465 2.3521 25.6454C3.0493 26.3605 3.89572 26.9129 4.83098 27.2633C5.72348 27.6054 6.73935 27.8416 8.23035 27.9151C9.72048 27.9825 10.1939 27.9965 13.9992 27.9965C17.8046 27.9965 18.2789 27.9781 19.7681 27.9151C21.2591 27.8416 22.275 27.6045 23.1675 27.2633C24.1016 26.9106 24.9475 26.3585 25.6464 25.6454C26.3624 24.9489 26.9149 24.1023 27.2642 23.1665C27.6064 22.274 27.8426 21.2581 27.9161 19.7671C27.9835 18.277 27.9975 17.8036 27.9975 13.9983C27.9975 10.1929 27.9791 9.71862 27.9161 8.22937C27.8426 6.73837 27.6055 5.71725 27.2642 4.83C26.9116 3.8959 26.3595 3.04996 25.6464 2.35113C24.9499 1.6351 24.1033 1.08253 23.1675 0.73325C22.275 0.38675 21.2591 0.154875 19.7681 0.081375C18.278 0.014 17.8046 0 13.9992 0ZM13.9992 2.52C17.7364 2.52 18.1826 2.53838 19.6596 2.60138C21.022 2.66525 21.764 2.89275 22.2566 3.08525C22.8656 3.31006 23.4168 3.66787 23.8701 4.13263C24.3341 4.58397 24.6905 5.13393 24.9131 5.74175C25.1056 6.23437 25.3331 6.97637 25.397 8.33875C25.46 9.81575 25.4784 10.2629 25.4784 13.9991C25.4784 17.7354 25.46 18.1825 25.3917 19.6595C25.3182 21.0219 25.0907 21.7639 24.8991 22.2565C24.634 22.9136 24.3382 23.373 23.85 23.87C23.3952 24.3318 22.8443 24.6879 22.2365 24.913C21.75 25.1055 20.9975 25.333 19.6299 25.3969C18.145 25.4599 17.7075 25.4783 13.9607 25.4783C10.214 25.4783 9.77735 25.4599 8.29073 25.3916C6.92835 25.3181 6.17673 25.0906 5.6841 24.899C5.0191 24.6339 4.56323 24.3381 4.07498 23.8499C3.58235 23.3572 3.2691 22.8883 3.0276 22.2364C2.8316 21.7499 2.6076 20.9974 2.53498 19.6298C2.4851 18.1624 2.46148 17.7074 2.46148 13.9781C2.46148 10.2506 2.4851 9.79475 2.53498 8.309C2.6076 6.94138 2.8316 6.19063 3.0276 5.70238C3.2691 5.0365 3.58323 4.5815 4.07498 4.08887C4.56235 3.6015 5.0191 3.2865 5.6841 3.03975C6.17673 2.84812 6.90998 2.62063 8.2776 2.55238C9.76248 2.499 10.2 2.47975 13.9415 2.47975L13.9992 2.52ZM13.9992 6.81363C13.0554 6.81328 12.1208 6.99893 11.2487 7.35995C10.3767 7.72098 9.58431 8.25031 8.91692 8.9177C8.24954 9.58508 7.72021 10.3774 7.35918 11.2495C6.99815 12.1215 6.81251 13.0562 6.81285 14C6.81251 14.9438 6.99815 15.8785 7.35918 16.7505C7.72021 17.6226 8.24954 18.4149 8.91692 19.0823C9.58431 19.7497 10.3767 20.279 11.2487 20.64C12.1208 21.0011 13.0554 21.1867 13.9992 21.1864C14.9431 21.1867 15.8777 21.0011 16.7497 20.64C17.6218 20.279 18.4141 19.7497 19.0815 19.0823C19.7489 18.4149 20.2782 17.6226 20.6393 16.7505C21.0003 15.8785 21.1859 14.9438 21.1856 14C21.1859 13.0562 21.0003 12.1215 20.6393 11.2495C20.2782 10.3774 19.7489 9.58508 19.0815 8.9177C18.4141 8.25031 17.6218 7.72098 16.7497 7.35995C15.8777 6.99893 14.9431 6.81328 13.9992 6.81363V6.81363ZM13.9992 18.6664C11.4197 18.6664 9.33285 16.5795 9.33285 14C9.33285 11.4205 11.4197 9.33362 13.9992 9.33362C16.5787 9.33362 18.6656 11.4205 18.6656 14C18.6656 16.5795 16.5787 18.6664 13.9992 18.6664ZM23.1552 6.52663C23.1548 6.97258 22.9773 7.40011 22.6618 7.71529C22.3463 8.03046 21.9186 8.2075 21.4726 8.2075C21.2521 8.2075 21.0338 8.16407 20.83 8.07968C20.6263 7.9953 20.4412 7.87162 20.2853 7.7157C20.1294 7.55977 20.0057 7.37467 19.9213 7.17095C19.8369 6.96723 19.7935 6.74888 19.7935 6.52837C19.7935 6.30787 19.8369 6.08952 19.9213 5.8858C20.0057 5.68208 20.1294 5.49698 20.2853 5.34105C20.4412 5.18513 20.6263 5.06145 20.83 4.97707C21.0338 4.89268 21.2521 4.84925 21.4726 4.84925C22.3975 4.84925 23.1552 5.60175 23.1552 6.52663V6.52663Z" fill="black"/>
</svg>
