<svg width="28" height="28" viewBox="0 0 28 28" fill="none" xmlns="http://www.w3.org/2000/svg">
<g clip-path="url(#clip0)">
<path d="M27.9447 5.33137C26.8967 5.79207 25.7867 6.09631 24.6503 6.23437C25.8482 5.51538 26.745 4.38667 27.1747 3.05725C26.0416 3.71437 24.8084 4.18112 23.5242 4.43887C22.6606 3.51615 21.5166 2.90423 20.2697 2.69806C19.0228 2.49189 17.7428 2.70298 16.6281 3.2986C15.5135 3.89422 14.6266 4.84106 14.105 5.99222C13.5834 7.14337 13.4563 8.43449 13.7434 9.66525C8.97205 9.44212 4.7423 7.14962 1.91342 3.68637C1.39846 4.56215 1.12914 5.56055 1.1338 6.5765C1.1331 7.52094 1.36562 8.45094 1.81073 9.28392C2.25584 10.1169 2.89976 10.8271 3.6853 11.3514C2.77497 11.3239 1.88447 11.0787 1.0883 10.6365V10.7056C1.08802 12.0313 1.54611 13.3162 2.38492 14.3427C3.22373 15.3693 4.39167 16.0742 5.6908 16.338C5.19869 16.4695 4.69166 16.5368 4.1823 16.5384C3.81392 16.5384 3.46217 16.5025 3.1113 16.4377C3.48101 17.5785 4.19718 18.5756 5.16012 19.2903C6.12306 20.005 7.28485 20.4017 8.4838 20.4251C6.45241 22.016 3.94586 22.879 1.36567 22.876C0.908665 22.8778 0.451963 22.8521 -0.00195312 22.799C2.63013 24.4855 5.69112 25.3808 8.81717 25.3785C19.3758 25.3785 25.1455 16.6329 25.1455 9.05887C25.1455 8.81737 25.1455 8.5715 25.1272 8.32475C26.2558 7.51585 27.2285 6.50908 27.998 5.35325L27.9447 5.33137Z" fill="black"/>
</g>
<defs>
<clipPath id="clip0">
<rect width="28" height="28" fill="white"/>
</clipPath>
</defs>
</svg>
