<svg width="70" height="70" viewBox="0 0 70 70" fill="none" xmlns="http://www.w3.org/2000/svg">
<rect width="6" height="45" transform="matrix(-1 0 0 1 31 0)" fill="black"/>
<rect width="6" height="16" transform="matrix(0 -1 -1 0 31 6)" fill="black"/>
<rect width="6" height="16" transform="matrix(0 -1 -1 0 31 45)" fill="black"/>
<rect width="6" height="16" transform="matrix(0 -1 -1 0 31 24)" fill="black"/>
<path fill-rule="evenodd" clip-rule="evenodd" d="M2 11C2 17.0751 7.8203 22 15 22C22.1797 22 28 17.0751 28 11C28 4.92487 22.1797 0 15 0C7.8203 0 2 4.92487 2 11ZM8 12.0001C8 15.3138 11.134 18.0001 15 18.0001C15.0106 18.0001 15.0213 18 15.0319 18H25V6H15V6.00006C11.134 6.00006 8 8.68635 8 12.0001Z" fill="black"/>
<path fill-rule="evenodd" clip-rule="evenodd" d="M0 32.5C0 39.4036 6.71573 45 15 45C23.2843 45 30 39.4036 30 32.5C30 25.5964 23.2843 20 15 20C6.71573 20 0 25.5964 0 32.5ZM6 31.5C6 35.6421 10.0294 39 15 39H25V24H15C10.0294 24 6 27.3579 6 31.5Z" fill="black"/>
<rect x="70" y="39" width="6" height="45" transform="rotate(90 70 39)" fill="black"/>
<rect x="64" y="39" width="6" height="16" fill="black"/>
<rect x="25" y="39" width="6" height="16" fill="black"/>
<rect x="46" y="39" width="6" height="16" fill="black"/>
<path fill-rule="evenodd" clip-rule="evenodd" d="M59 68C52.9249 68 48 62.1797 48 55C48 47.8203 52.9249 42 59 42C65.0751 42 70 47.8203 70 55C70 62.1797 65.0751 68 59 68ZM57.9999 62C54.6862 62 51.9999 58.866 51.9999 55C51.9999 54.9894 52 54.9787 52 54.9681V45H64V55H63.9999C63.9999 58.866 61.3136 62 57.9999 62Z" fill="black"/>
<path fill-rule="evenodd" clip-rule="evenodd" d="M37.5 70C30.5964 70 25 63.2843 25 55C25 46.7157 30.5964 40 37.5 40C44.4036 40 50 46.7157 50 55C50 63.2843 44.4036 70 37.5 70ZM38.5 64C34.3579 64 31 59.9706 31 55V45H46V55C46 59.9706 42.6421 64 38.5 64Z" fill="black"/>
</svg>
